<?xml version="1.0" standalone="no"?>
<!DOCTYPE svg PUBLIC "-//W3C//DTD SVG 20010904//EN"
 "http://www.w3.org/TR/2001/REC-SVG-20010904/DTD/svg10.dtd">
<svg version="1.0" xmlns="http://www.w3.org/2000/svg"
  width="150px" height="150px"  viewBox="0 0 298.000000 295.000000"
 preserveAspectRatio="xMidYMid meet">

<g transform="translate(0.000000,295.000000) scale(0.100000,-0.100000)"
fill="#000000" stroke="none">
<path d="M32 1463 c2 -1117 4 -1299 8 -778 3 374 6 660 8 637 3 -70 41 -240
74 -337 136 -404 485 -750 898 -888 161 -55 238 -68 423 -74 182 -6 259 2 414
42 254 66 470 192 660 385 214 216 360 513 404 821 15 110 6 387 -16 489 -74
340 -265 639 -541 852 -188 144 -452 254 -679 281 -88 11 -16 13 580 17 514 4
325 6 -777 8 l-1458 2 2 -1457z m1258 1432 c-220 -30 -405 -99 -590 -221 -362
-237 -599 -620 -649 -1046 -5 -46 -9 178 -10 605 l-1 677 673 -1 c596 -1 661
-3 577 -14z m370 -796 l0 -201 -272 3 c-150 1 -279 4 -285 7 -10 3 -13 51 -13
191 0 103 3 191 7 194 3 4 132 7 285 7 l278 0 0 -201z m238 189 c13 -13 18
-421 6 -452 -5 -13 -21 -16 -76 -16 -114 0 -108 -14 -108 238 0 156 3 221 12
230 7 7 41 12 83 12 42 0 76 -5 83 -12z m-454 -425 c3 -10 9 -24 12 -30 7 -16
-151 -19 -161 -3 -3 6 -2 10 3 10 5 0 12 9 15 20 4 17 14 20 65 20 48 0 61 -3
66 -17z m-744 -658 l0 -155 50 0 c44 0 50 -3 50 -20 0 -19 -5 -21 -72 -18
l-73 3 -3 160 c-1 87 0 165 2 172 3 7 15 13 26 13 19 0 20 -6 20 -155z m230
19 c0 -142 8 -174 41 -174 30 0 39 39 39 181 0 124 1 129 21 129 20 0 20 -4
17 -154 -3 -135 -5 -157 -22 -175 -26 -28 -88 -29 -116 -1 -18 18 -20 33 -20
175 0 148 1 155 20 155 19 0 20 -7 20 -136z m343 125 c12 -7 25 -17 29 -23 13
-19 9 -111 -6 -132 -12 -16 -12 -22 -1 -34 7 -8 15 -45 17 -82 4 -65 3 -68
-19 -68 -21 0 -23 4 -23 51 0 63 -13 89 -45 89 -24 0 -25 -2 -25 -70 0 -68 -1
-70 -25 -70 l-25 0 0 175 0 175 51 0 c28 0 60 -5 72 -11z m295 -11 c3 -14 -6
-17 -50 -20 l-53 -3 -3 -52 -3 -53 41 0 c27 0 43 -5 47 -15 8 -22 -1 -27 -44
-29 l-38 -1 -3 -57 -3 -58 51 0 c43 0 50 -3 50 -20 0 -18 -7 -20 -70 -20 l-70
0 0 175 0 176 72 -3 c59 -2 73 -6 76 -20z m240 -1 c14 -15 18 -41 20 -147 4
-128 3 -130 -22 -155 -23 -23 -33 -26 -84 -23 l-57 3 -3 160 c-1 87 0 166 3
173 8 21 120 12 143 -11z m272 3 c0 -17 -7 -20 -50 -20 l-50 0 0 -54 0 -55 38
-3 c29 -2 37 -7 37 -23 0 -16 -8 -21 -37 -23 l-38 -3 0 -55 0 -54 50 0 c43 0
50 -3 50 -20 0 -18 -7 -20 -75 -20 l-75 0 0 175 0 175 75 0 c68 0 75 -2 75
-20z m161 -115 c26 -135 29 -137 48 -32 31 165 32 167 52 167 10 0 19 -5 19
-11 0 -7 -14 -86 -31 -175 l-31 -164 -32 0 -32 0 -28 148 c-15 81 -30 160 -33
175 -5 26 -3 28 18 25 22 -3 26 -12 50 -133z"/>
<path d="M1117 2263 c-4 -3 -7 -71 -7 -150 l0 -143 265 0 265 0 0 150 0 150
-258 0 c-142 0 -262 -3 -265 -7z"/>
<path d="M1740 2270 c0 -6 32 -10 75 -10 43 0 75 4 75 10 0 6 -32 10 -75 10
-43 0 -75 -4 -75 -10z"/>
<path d="M1740 1850 c0 -6 32 -10 75 -10 43 0 75 4 75 10 0 6 -32 10 -75 10
-43 0 -75 -4 -75 -10z"/>
<path d="M1200 1260 c0 -57 1 -60 25 -60 14 0 29 8 35 19 24 46 2 101 -41 101
-17 0 -19 -7 -19 -60z"/>
<path d="M1710 1185 c0 -126 1 -135 19 -135 49 0 51 5 51 131 0 107 -2 119
-19 129 -49 25 -51 19 -51 -125z"/>
</g>
</svg>
